<svg xmlns="http://www.w3.org/2000/svg" xmlns:xlink="http://www.w3.org/1999/xlink" width="50.744" height="50" viewBox="0 0 50.744 50">
  <defs>
    <clipPath id="clip-path">
      <path id="Path_27" data-name="Path 27" d="M532.013,294.383l2.519-1.682a22.894,22.894,0,0,0-10.156,19.887,24.584,24.584,0,0,0,24.39,23.733,22.972,22.972,0,0,0,12.813-3.846l-2.519,1.681A22.965,22.965,0,0,1,546.247,338a24.586,24.586,0,0,1-24.391-23.734,22.991,22.991,0,0,1,6.434-16.781A22.761,22.761,0,0,1,532.013,294.383Z" transform="translate(-521.846 -292.701)" fill="#4d5f66"/>
    </clipPath>
    <clipPath id="clip-path-2">
      <path id="Path_42" data-name="Path 42" d="M548.166,285.607l2.518-1.682a23.789,23.789,0,0,1,13.268-3.983,25.157,25.157,0,0,1,17.552,7.2l-2.518,1.681a25.158,25.158,0,0,0-17.552-7.2A23.782,23.782,0,0,0,548.166,285.607Z" transform="translate(-548.166 -279.942)" fill="#4d5f66"/>
    </clipPath>
    <clipPath id="clip-path-3">
      <path id="Path_57" data-name="Path 57" d="M626.744,337.481l-2.519,1.681a23.571,23.571,0,0,0,3.854-3.214,23.838,23.838,0,0,0,6.665-17.385,25.316,25.316,0,0,0-7.7-17.385l2.518-1.681a25.314,25.314,0,0,1,7.7,17.385,23.834,23.834,0,0,1-6.665,17.385A23.566,23.566,0,0,1,626.744,337.481Z" transform="translate(-624.225 -299.497)" fill="#4d5f66"/>
    </clipPath>
    <clipPath id="clip-path-4">
      <path id="Path_84" data-name="Path 84" d="M544.306,309.741l2.461-1.642a18.437,18.437,0,0,0-8.2,15.97,19.571,19.571,0,0,0,6.053,13.518,19.911,19.911,0,0,0,13.817,5.6,18.877,18.877,0,0,0,10.528-3.154h0l-2.46,1.642a18.878,18.878,0,0,1-10.529,3.154,19.915,19.915,0,0,1-13.817-5.6,19.573,19.573,0,0,1-6.053-13.518,18.44,18.44,0,0,1,8.2-15.97Z" transform="translate(-536.096 -308.099)" fill="#4d5f66"/>
    </clipPath>
    <clipPath id="clip-path-5">
      <path id="Path_99" data-name="Path 99" d="M557.128,302.208l2.461-1.643a19.67,19.67,0,0,1,10.968-3.287,20.75,20.75,0,0,1,14.4,5.841l-2.461,1.642a20.753,20.753,0,0,0-14.4-5.841A19.665,19.665,0,0,0,557.128,302.208Z" transform="translate(-557.128 -297.278)" fill="#4d5f66"/>
    </clipPath>
    <clipPath id="clip-path-6">
      <path id="Path_114" data-name="Path 114" d="M622.408,343.921l-2.461,1.643A19.238,19.238,0,0,0,628.5,328.9a20.433,20.433,0,0,0-6.318-14.113l2.461-1.642a20.432,20.432,0,0,1,6.318,14.113,19.238,19.238,0,0,1-8.554,16.666Z" transform="translate(-619.947 -313.143)" fill="#4d5f66"/>
    </clipPath>
    <clipPath id="clip-path-7">
      <path id="Path_141" data-name="Path 141" d="M561.561,333.8l2.461-1.643a12.74,12.74,0,0,0-1.878,1.529,12.1,12.1,0,0,0-3.639,9.038,12.878,12.878,0,0,0,4.178,9.038,14.04,14.04,0,0,0,9.574,3.755,13.4,13.4,0,0,0,7.47-2.226l-1.23.821-1.23.821a13.4,13.4,0,0,1-7.47,2.226,14.04,14.04,0,0,1-9.573-3.755,12.878,12.878,0,0,1-4.179-9.038,12.1,12.1,0,0,1,3.639-9.038A12.733,12.733,0,0,1,561.561,333.8Z" transform="translate(-556.039 -332.158)" fill="#4d5f66"/>
    </clipPath>
    <clipPath id="clip-path-8">
      <path id="Path_156" data-name="Path 156" d="M569.775,327.859l2.461-1.643a14.2,14.2,0,0,1,7.911-2.358,14.873,14.873,0,0,1,10.144,3.982l-2.461,1.642a14.871,14.871,0,0,0-10.143-3.982A14.2,14.2,0,0,0,569.775,327.859Z" transform="translate(-569.775 -323.859)" fill="#4d5f66"/>
    </clipPath>
    <clipPath id="clip-path-9">
      <path id="Path_171" data-name="Path 171" d="M617.416,355.58l-2.46,1.643a13.58,13.58,0,0,0,2-1.624,12.919,12.919,0,0,0,3.876-9.641,13.743,13.743,0,0,0-4.453-9.641l2.461-1.642a13.742,13.742,0,0,1,4.453,9.641,12.918,12.918,0,0,1-3.876,9.641A13.543,13.543,0,0,1,617.416,355.58Z" transform="translate(-614.956 -334.674)" fill="#4d5f66"/>
    </clipPath>
    <clipPath id="clip-path-10">
      <path id="Path_198" data-name="Path 198" d="M572.893,347.513l2.461-1.643a8.083,8.083,0,0,0-1.19.968,7.666,7.666,0,0,0-2.306,5.721,8.156,8.156,0,0,0,2.648,5.722,8.918,8.918,0,0,0,6.08,2.382,8.516,8.516,0,0,0,4.747-1.413l-2.461,1.643a8.517,8.517,0,0,1-4.747,1.414,8.922,8.922,0,0,1-6.08-2.383A8.159,8.159,0,0,1,569.4,354.2a7.665,7.665,0,0,1,2.306-5.721A8.091,8.091,0,0,1,572.893,347.513Z" transform="translate(-569.393 -345.871)" fill="#4d5f66"/>
    </clipPath>
    <clipPath id="clip-path-11">
      <path id="Path_213" data-name="Path 213" d="M577.631,342.961l2.461-1.643a9.313,9.313,0,0,1,5.189-1.547,9.754,9.754,0,0,1,6.649,2.609l-2.461,1.643a9.751,9.751,0,0,0-6.648-2.61A9.319,9.319,0,0,0,577.631,342.961Z" transform="translate(-577.631 -339.771)" fill="#4d5f66"/>
    </clipPath>
    <clipPath id="clip-path-12">
      <path id="Path_228" data-name="Path 228" d="M609.728,360.571l-2.461,1.642a8.863,8.863,0,0,0,1.3-1.062,8.474,8.474,0,0,0,2.546-6.326,9.013,9.013,0,0,0-2.924-6.325l2.461-1.643a9.012,9.012,0,0,1,2.923,6.325,8.476,8.476,0,0,1-2.545,6.326A8.839,8.839,0,0,1,609.728,360.571Z" transform="translate(-607.267 -346.858)" fill="#4d5f66"/>
    </clipPath>
    <clipPath id="clip-path-13">
      <path id="Path_236" data-name="Path 236" d="M588.134,367.664l2.461-1.642a2.979,2.979,0,0,1,1.653-.5l-2.461,1.643A2.972,2.972,0,0,0,588.134,367.664Z" transform="translate(-588.134 -365.524)" fill="#4d5f66"/>
    </clipPath>
    <clipPath id="clip-path-14">
      <path id="Path_259" data-name="Path 259" d="M596.916,371.016l-2.461,1.642a2.884,2.884,0,0,0,1.285-2.5,3.124,3.124,0,0,0-3.116-2.994l2.461-1.643a3.124,3.124,0,0,1,3.116,2.995A2.883,2.883,0,0,1,596.916,371.016Z" transform="translate(-592.624 -365.524)" fill="#4d5f66"/>
    </clipPath>
  </defs>
  <g id="ic-logo" transform="translate(-521.846 -279.942)">
    <g id="Group_12" data-name="Group 12" transform="translate(521.846 279.942)">
      <g id="Group_11" data-name="Group 11">
        <g id="Group_10" data-name="Group 10" style="isolation: isolate">
          <g id="Group_3" data-name="Group 3" transform="translate(0 4.698)" style="isolation: isolate">
            <path id="Path_1" data-name="Path 1" d="M532.013,294.383l2.519-1.682a22.894,22.894,0,0,0-10.156,19.887,24.584,24.584,0,0,0,24.39,23.733,22.972,22.972,0,0,0,12.813-3.846l-2.519,1.681A22.965,22.965,0,0,1,546.247,338a24.586,24.586,0,0,1-24.391-23.734,22.991,22.991,0,0,1,6.434-16.781A22.761,22.761,0,0,1,532.013,294.383Z" transform="translate(-521.846 -292.701)" fill="#4d5f66"/>
            <g id="Group_2" data-name="Group 2" clip-path="url(#clip-path)">
              <g id="Group_1" data-name="Group 1" transform="translate(0)" style="isolation: isolate">
                <path id="Path_2" data-name="Path 2" d="M539.009,294.383l2.519-1.682a22.818,22.818,0,0,0-6.091,5.992l-2.518,1.681a22.819,22.819,0,0,1,6.091-5.991" transform="translate(-528.841 -292.701)" fill="#4d5f66"/>
                <path id="Path_3" data-name="Path 3" d="M530.371,310.655l2.518-1.681a22.8,22.8,0,0,0-1.485,2.464l-2.518,1.681a22.834,22.834,0,0,1,1.484-2.464" transform="translate(-526.295 -302.982)" fill="#4d5f66"/>
                <path id="Path_4" data-name="Path 4" d="M527.241,317.346l2.518-1.681a22.981,22.981,0,0,0-.959,2.1l-2.518,1.682a22.521,22.521,0,0,1,.96-2.1" transform="translate(-524.648 -307.21)" fill="#4d5f66"/>
                <path id="Path_5" data-name="Path 5" d="M525.134,323.045l2.518-1.682q-.374.944-.668,1.927l-2.519,1.681q.293-.983.668-1.927" transform="translate(-523.501 -310.81)" fill="#4d5f66"/>
                <path id="Path_6" data-name="Path 6" d="M523.664,328.278l2.519-1.681q-.271.908-.467,1.846l-2.519,1.682q.2-.939.467-1.847" transform="translate(-522.7 -314.117)" fill="#4d5f66"/>
                <path id="Path_7" data-name="Path 7" d="M522.671,333.294l2.519-1.682q-.188.9-.307,1.821l-2.518,1.681q.118-.923.306-1.821" transform="translate(-522.174 -317.285)" fill="#4d5f66"/>
                <path id="Path_8" data-name="Path 8" d="M522.087,338.24l2.518-1.681q-.116.908-.162,1.838l-2.518,1.681q.045-.93.162-1.839" transform="translate(-521.896 -320.411)" fill="#4d5f66"/>
                <path id="Path_9" data-name="Path 9" d="M521.875,343.233l2.518-1.681q-.045.941-.017,1.9v0l-2.519,1.681v0q-.028-.959.018-1.9" transform="translate(-521.846 -323.565)" fill="#4d5f66"/>
                <path id="Path_10" data-name="Path 10" d="M521.876,348.4l2.519-1.681q.029,1,.141,1.987l-2.519,1.682q-.109-.982-.141-1.987" transform="translate(-521.865 -326.831)" fill="#4d5f66"/>
                <path id="Path_11" data-name="Path 11" d="M522.258,353.8l2.519-1.682q.12,1.072.334,2.116l-2.518,1.681q-.213-1.043-.335-2.115" transform="translate(-522.106 -330.24)" fill="#4d5f66"/>
                <path id="Path_12" data-name="Path 12" d="M523.167,359.544l2.518-1.681a24.291,24.291,0,0,0,.608,2.365l-2.518,1.681a23.848,23.848,0,0,1-.608-2.366" transform="translate(-522.681 -333.871)" fill="#4d5f66"/>
                <path id="Path_13" data-name="Path 13" d="M524.819,365.969l2.518-1.682a24.379,24.379,0,0,0,1.155,2.992l-2.518,1.681a24.177,24.177,0,0,1-1.155-2.992" transform="translate(-523.724 -337.929)" fill="#4d5f66"/>
                <path id="Path_14" data-name="Path 14" d="M527.957,374.1l2.518-1.681a24.911,24.911,0,0,0,7.127,9.012l-2.518,1.681a24.878,24.878,0,0,1-7.127-9.011" transform="translate(-525.707 -343.064)" fill="#4d5f66"/>
                <path id="Path_15" data-name="Path 15" d="M547.314,398.57l2.518-1.681a24.785,24.785,0,0,0,2.707,1.862l-2.519,1.681a24.7,24.7,0,0,1-2.706-1.862" transform="translate(-537.937 -358.528)" fill="#4d5f66"/>
                <path id="Path_16" data-name="Path 16" d="M554.664,403.626l2.519-1.681a24.67,24.67,0,0,0,2.219,1.17l-2.518,1.681a24.589,24.589,0,0,1-2.22-1.17" transform="translate(-542.581 -361.722)" fill="#4d5f66"/>
                <path id="Path_17" data-name="Path 17" d="M560.692,406.8l2.518-1.681q.98.453,2,.82l-2.518,1.681q-1.023-.366-2-.821" transform="translate(-546.389 -363.729)" fill="#4d5f66"/>
                <path id="Path_18" data-name="Path 18" d="M566.133,409.031l2.518-1.681q.937.336,1.907.6l-2.518,1.681q-.969-.259-1.907-.6" transform="translate(-549.827 -365.137)" fill="#4d5f66"/>
                <path id="Path_19" data-name="Path 19" d="M571.313,410.649l2.518-1.681q.92.246,1.866.42l-2.518,1.682q-.945-.173-1.866-.42" transform="translate(-553.1 -366.159)" fill="#4d5f66"/>
                <path id="Path_20" data-name="Path 20" d="M576.381,411.79l2.518-1.682q.925.17,1.871.267l-2.518,1.682q-.945-.1-1.871-.267" transform="translate(-556.302 -366.879)" fill="#4d5f66"/>
                <path id="Path_21" data-name="Path 21" d="M581.462,412.515l2.518-1.682q.951.1,1.921.12l-2.519,1.681q-.969-.021-1.92-.119" transform="translate(-559.512 -367.338)" fill="#4d5f66"/>
                <path id="Path_22" data-name="Path 22" d="M586.677,412.772l2.519-1.681q.265.005.531.006.742,0,1.471-.045l-2.519,1.681q-.729.045-1.471.045-.266,0-.531-.006" transform="translate(-562.807 -367.476)" fill="#4d5f66"/>
                <path id="Path_23" data-name="Path 23" d="M592.114,412.348l2.519-1.681q1.064-.066,2.1-.224l-2.518,1.681q-1.033.158-2.1.224" transform="translate(-566.242 -367.091)" fill="#4d5f66"/>
                <path id="Path_24" data-name="Path 24" d="M597.814,411.314l2.518-1.681a23.259,23.259,0,0,0,2.3-.472l-2.519,1.681a22.943,22.943,0,0,1-2.3.472" transform="translate(-569.843 -366.281)" fill="#4d5f66"/>
                <path id="Path_25" data-name="Path 25" d="M604.066,409.288l2.519-1.681a22.713,22.713,0,0,0,2.761-.906l-2.518,1.682a22.9,22.9,0,0,1-2.762.905" transform="translate(-573.793 -364.727)" fill="#4d5f66"/>
                <path id="Path_26" data-name="Path 26" d="M611.568,404.608l2.518-1.682a22.705,22.705,0,0,0,4.18-2.2l-2.519,1.681a22.747,22.747,0,0,1-4.179,2.2" transform="translate(-578.533 -360.952)" fill="#4d5f66"/>
              </g>
            </g>
          </g>
          <g id="Group_6" data-name="Group 6" transform="translate(9.691)" style="isolation: isolate">
            <path id="Path_28" data-name="Path 28" d="M548.166,285.607l2.518-1.682a23.789,23.789,0,0,1,13.268-3.983,25.157,25.157,0,0,1,17.552,7.2l-2.518,1.681a25.158,25.158,0,0,0-17.552-7.2A23.782,23.782,0,0,0,548.166,285.607Z" transform="translate(-548.166 -279.942)" fill="#4d5f66"/>
            <g id="Group_5" data-name="Group 5" clip-path="url(#clip-path-2)">
              <g id="Group_4" data-name="Group 4" style="isolation: isolate">
                <path id="Path_29" data-name="Path 29" d="M548.166,288.533l2.518-1.682a23.547,23.547,0,0,1,4.327-2.278l-2.518,1.681a23.517,23.517,0,0,0-4.327,2.278" transform="translate(-548.166 -282.869)" fill="#4d5f66"/>
                <path id="Path_30" data-name="Path 30" d="M559.918,284.646l2.518-1.681a23.631,23.631,0,0,1,2.861-.938l-2.518,1.681a23.716,23.716,0,0,0-2.861.938" transform="translate(-555.591 -281.259)" fill="#4d5f66"/>
                <path id="Path_31" data-name="Path 31" d="M567.689,282.868l2.518-1.681a24.127,24.127,0,0,1,2.384-.489l-2.519,1.682a23.8,23.8,0,0,0-2.384.488" transform="translate(-560.501 -280.42)" fill="#4d5f66"/>
                <path id="Path_32" data-name="Path 32" d="M574.163,281.982l2.519-1.682q1.07-.163,2.173-.232l-2.518,1.681q-1.1.068-2.173.232" transform="translate(-564.591 -280.022)" fill="#4d5f66"/>
                <path id="Path_33" data-name="Path 33" d="M580.066,281.67l2.518-1.681q.755-.046,1.523-.047.276,0,.549.006l-2.518,1.682q-.273-.007-.549-.007-.767,0-1.522.047" transform="translate(-568.321 -279.942)" fill="#4d5f66"/>
                <path id="Path_34" data-name="Path 34" d="M585.691,281.641l2.518-1.682q1,.022,1.987.123l-2.519,1.681q-.983-.1-1.986-.123" transform="translate(-571.875 -279.953)" fill="#4d5f66"/>
                <path id="Path_35" data-name="Path 35" d="M591.086,281.975l2.519-1.681q.978.1,1.936.277l-2.519,1.681q-.957-.175-1.936-.276" transform="translate(-575.283 -280.164)" fill="#4d5f66"/>
                <path id="Path_36" data-name="Path 36" d="M596.345,282.726l2.519-1.681q.979.179,1.932.434l-2.519,1.682q-.952-.255-1.932-.435" transform="translate(-578.606 -280.639)" fill="#4d5f66"/>
                <path id="Path_37" data-name="Path 37" d="M601.593,283.906l2.519-1.682q1,.269,1.975.617l-2.519,1.682q-.971-.349-1.975-.617" transform="translate(-581.922 -281.384)" fill="#4d5f66"/>
                <path id="Path_38" data-name="Path 38" d="M606.957,285.581l2.519-1.682q1.059.381,2.075.851l-2.519,1.681q-1.015-.47-2.075-.85" transform="translate(-585.31 -282.442)" fill="#4d5f66"/>
                <path id="Path_39" data-name="Path 39" d="M612.593,287.891l2.519-1.681a25.524,25.524,0,0,1,2.3,1.211l-2.518,1.681a25.427,25.427,0,0,0-2.3-1.211" transform="translate(-588.871 -283.902)" fill="#4d5f66"/>
                <path id="Path_40" data-name="Path 40" d="M618.836,291.179l2.518-1.681a25.7,25.7,0,0,1,2.8,1.926l-2.519,1.681a25.639,25.639,0,0,0-2.8-1.926" transform="translate(-592.816 -285.98)" fill="#4d5f66"/>
                <path id="Path_41" data-name="Path 41" d="M626.441,296.411l2.519-1.681a25.626,25.626,0,0,1,2,1.755l-2.518,1.681a25.72,25.72,0,0,0-2-1.755" transform="translate(-597.621 -289.285)" fill="#4d5f66"/>
              </g>
            </g>
          </g>
          <g id="Group_9" data-name="Group 9" transform="translate(37.695 7.2)" style="isolation: isolate">
            <path id="Path_43" data-name="Path 43" d="M626.744,337.481l-2.519,1.681a23.571,23.571,0,0,0,3.854-3.214,23.838,23.838,0,0,0,6.665-17.385,25.316,25.316,0,0,0-7.7-17.385l2.518-1.681a25.314,25.314,0,0,1,7.7,17.385,23.834,23.834,0,0,1-6.665,17.385A23.566,23.566,0,0,1,626.744,337.481Z" transform="translate(-624.225 -299.497)" fill="#4d5f66"/>
            <g id="Group_8" data-name="Group 8" clip-path="url(#clip-path-3)">
              <g id="Group_7" data-name="Group 7" style="isolation: isolate">
                <path id="Path_44" data-name="Path 44" d="M631.871,301.178l2.518-1.681a25.679,25.679,0,0,1,5.382,7.581l-2.518,1.681a25.683,25.683,0,0,0-5.382-7.58" transform="translate(-629.056 -299.497)" fill="#4d5f66"/>
                <path id="Path_45" data-name="Path 45" d="M646.489,321.767l2.518-1.681a25.252,25.252,0,0,1,1.2,3.1l-2.518,1.682a25.238,25.238,0,0,0-1.2-3.1" transform="translate(-638.292 -312.505)" fill="#4d5f66"/>
                <path id="Path_46" data-name="Path 46" d="M649.744,330.194l2.518-1.682a24.949,24.949,0,0,1,.63,2.452l-2.518,1.681a25.212,25.212,0,0,0-.631-2.452" transform="translate(-640.348 -317.829)" fill="#4d5f66"/>
                <path id="Path_47" data-name="Path 47" d="M651.457,336.853l2.518-1.681q.22,1.08.346,2.191l-2.518,1.681q-.125-1.11-.346-2.191" transform="translate(-641.43 -322.037)" fill="#4d5f66"/>
                <path id="Path_48" data-name="Path 48" d="M652.4,342.8l2.518-1.681q.115,1.018.146,2.057l-2.518,1.681q-.031-1.039-.146-2.057" transform="translate(-642.024 -325.796)" fill="#4d5f66"/>
                <path id="Path_49" data-name="Path 49" d="M652.761,348.389l2.518-1.681v0q.03.993-.019,1.966l-2.518,1.682q.048-.973.018-1.966v0" transform="translate(-642.243 -329.325)" fill="#4d5f66"/>
                <path id="Path_50" data-name="Path 50" d="M652.454,353.734l2.518-1.682q-.047.962-.168,1.9l-2.518,1.681q.12-.941.168-1.9" transform="translate(-641.954 -332.702)" fill="#4d5f66"/>
                <path id="Path_51" data-name="Path 51" d="M651.741,358.9l2.518-1.681q-.122.955-.318,1.887l-2.518,1.681q.2-.931.318-1.887" transform="translate(-641.409 -335.968)" fill="#4d5f66"/>
                <path id="Path_52" data-name="Path 52" d="M650.591,364.029l2.518-1.681q-.2.972-.484,1.914l-2.519,1.681q.281-.942.485-1.915" transform="translate(-640.577 -339.207)" fill="#4d5f66"/>
                <path id="Path_53" data-name="Path 53" d="M648.918,369.228l2.519-1.681q-.3,1.02-.693,2l-2.518,1.681q.389-.979.693-2" transform="translate(-639.388 -342.491)" fill="#4d5f66"/>
                <path id="Path_54" data-name="Path 54" d="M646.517,374.66l2.518-1.681a23.834,23.834,0,0,1-1,2.176l-2.519,1.681a23.691,23.691,0,0,0,1-2.177" transform="translate(-637.68 -345.923)" fill="#4d5f66"/>
                <path id="Path_55" data-name="Path 55" d="M642.881,380.571l2.519-1.681a23.642,23.642,0,0,1-1.538,2.553l-2.519,1.682a23.63,23.63,0,0,0,1.538-2.554" transform="translate(-635.04 -349.658)" fill="#4d5f66"/>
                <path id="Path_56" data-name="Path 56" d="M630.528,387.507l2.519-1.682a23.61,23.61,0,0,1-6.3,6.2l-2.519,1.682a23.614,23.614,0,0,0,6.3-6.2" transform="translate(-624.225 -354.04)" fill="#4d5f66"/>
              </g>
            </g>
          </g>
        </g>
      </g>
    </g>
    <g id="Group_24" data-name="Group 24" transform="translate(527.092 286.325)">
      <g id="Group_23" data-name="Group 23" transform="translate(0 0)">
        <g id="Group_22" data-name="Group 22" style="isolation: isolate">
          <g id="Group_15" data-name="Group 15" transform="translate(0 3.984)" style="isolation: isolate">
            <path id="Path_58" data-name="Path 58" d="M544.306,309.741l2.461-1.642a18.437,18.437,0,0,0-8.2,15.97,19.571,19.571,0,0,0,6.053,13.518,19.911,19.911,0,0,0,13.817,5.6,18.877,18.877,0,0,0,10.528-3.154h0l-2.46,1.642a18.878,18.878,0,0,1-10.529,3.154,19.915,19.915,0,0,1-13.817-5.6,19.573,19.573,0,0,1-6.053-13.518,18.44,18.44,0,0,1,8.2-15.97Z" transform="translate(-536.096 -308.099)" fill="#4d5f66"/>
            <g id="Group_14" data-name="Group 14" clip-path="url(#clip-path-4)">
              <g id="Group_13" data-name="Group 13" transform="translate(0)" style="isolation: isolate">
                <path id="Path_59" data-name="Path 59" d="M549.918,309.741l2.461-1.642a18.48,18.48,0,0,0-4.94,4.854l-2.46,1.642a18.482,18.482,0,0,1,4.94-4.854" transform="translate(-541.708 -308.099)" fill="#4d5f66"/>
                <path id="Path_60" data-name="Path 60" d="M542.926,322.925l2.46-1.642a18.409,18.409,0,0,0-1.2,1.983l-2.46,1.643a18.267,18.267,0,0,1,1.2-1.984" transform="translate(-539.656 -316.429)" fill="#4d5f66"/>
                <path id="Path_61" data-name="Path 61" d="M540.408,328.313l2.46-1.643a18.163,18.163,0,0,0-.77,1.686L539.637,330a18.239,18.239,0,0,1,.771-1.685" transform="translate(-538.333 -319.832)" fill="#4d5f66"/>
                <path id="Path_62" data-name="Path 62" d="M538.721,332.891l2.461-1.642q-.3.753-.534,1.539l-2.461,1.642q.234-.785.534-1.539" transform="translate(-537.417 -322.725)" fill="#4d5f66"/>
                <path id="Path_63" data-name="Path 63" d="M537.547,337.071l2.461-1.642q-.216.725-.373,1.475l-2.461,1.642q.157-.749.373-1.475" transform="translate(-536.777 -325.366)" fill="#4d5f66"/>
                <path id="Path_64" data-name="Path 64" d="M536.754,341.077l2.461-1.643q-.15.717-.244,1.453l-2.461,1.643q.094-.736.244-1.453" transform="translate(-536.358 -327.897)" fill="#4d5f66"/>
                <path id="Path_65" data-name="Path 65" d="M536.288,345.022l2.461-1.643q-.093.725-.129,1.466l-2.461,1.643q.037-.741.13-1.465" transform="translate(-536.135 -330.389)" fill="#4d5f66"/>
                <path id="Path_66" data-name="Path 66" d="M536.119,349l2.461-1.643q-.037.749-.015,1.514h0l-2.461,1.643v0q-.023-.764.014-1.514" transform="translate(-536.096 -332.904)" fill="#4d5f66"/>
                <path id="Path_67" data-name="Path 67" d="M536.119,353.12l2.461-1.643q.024.8.113,1.583l-2.461,1.642q-.088-.782-.113-1.582" transform="translate(-536.111 -335.505)" fill="#4d5f66"/>
                <path id="Path_68" data-name="Path 68" d="M536.425,357.418l2.461-1.642q.1.854.266,1.686l-2.461,1.642q-.17-.831-.266-1.686" transform="translate(-536.304 -338.222)" fill="#4d5f66"/>
                <path id="Path_69" data-name="Path 69" d="M537.148,362l2.461-1.642a19.265,19.265,0,0,0,.486,1.89l-2.461,1.643a19.181,19.181,0,0,1-.486-1.89" transform="translate(-536.761 -341.115)" fill="#4d5f66"/>
                <path id="Path_70" data-name="Path 70" d="M538.468,367.129l2.461-1.643a19.288,19.288,0,0,0,.923,2.388l-2.461,1.642a19.34,19.34,0,0,1-.922-2.388" transform="translate(-537.595 -344.357)" fill="#4d5f66"/>
                <path id="Path_71" data-name="Path 71" d="M540.973,373.615l2.461-1.643a19.956,19.956,0,0,0,4.266,5.97q.71.683,1.485,1.3l-2.461,1.643q-.774-.613-1.486-1.3a19.966,19.966,0,0,1-4.266-5.97" transform="translate(-539.177 -348.455)" fill="#4d5f66"/>
                <path id="Path_72" data-name="Path 72" d="M556.594,393.352l2.461-1.643a20.19,20.19,0,0,0,2.211,1.521l-2.461,1.642a20.184,20.184,0,0,1-2.211-1.52" transform="translate(-549.047 -360.924)" fill="#4d5f66"/>
                <path id="Path_73" data-name="Path 73" d="M562.6,397.481l2.461-1.642a19.813,19.813,0,0,0,1.814.955l-2.461,1.643a19.875,19.875,0,0,1-1.814-.956" transform="translate(-552.841 -363.534)" fill="#4d5f66"/>
                <path id="Path_74" data-name="Path 74" d="M567.525,400.076l2.461-1.643q.8.373,1.644.674l-2.461,1.642q-.84-.3-1.644-.674" transform="translate(-555.953 -365.173)" fill="#4d5f66"/>
                <path id="Path_75" data-name="Path 75" d="M571.991,401.907l2.461-1.643q.77.276,1.566.489l-2.461,1.642q-.8-.213-1.566-.489" transform="translate(-558.775 -366.329)" fill="#4d5f66"/>
                <path id="Path_76" data-name="Path 76" d="M576.245,403.235l2.461-1.642q.757.2,1.535.345l-2.461,1.643q-.778-.143-1.535-.346" transform="translate(-561.462 -367.169)" fill="#4d5f66"/>
                <path id="Path_77" data-name="Path 77" d="M580.414,404.174l2.461-1.643q.762.139,1.541.22l-2.461,1.642q-.779-.08-1.541-.219" transform="translate(-564.096 -367.762)" fill="#4d5f66"/>
                <path id="Path_78" data-name="Path 78" d="M584.6,404.77l2.461-1.642q.783.08,1.582.1l-2.461,1.642q-.8-.017-1.582-.1" transform="translate(-566.74 -368.139)" fill="#4d5f66"/>
                <path id="Path_79" data-name="Path 79" d="M588.541,405.337,591,403.694q.218,0,.438,0,.612,0,1.213-.037l-2.46,1.642q-.6.037-1.214.037-.219,0-.437,0" transform="translate(-569.231 -368.476)" fill="#4d5f66"/>
                <path id="Path_80" data-name="Path 80" d="M593.381,404.633l2.33-1.511c.585-.036,1.292-.229,1.861-.315l-2.461,1.643q-.852.13-1.729.184" transform="translate(-572.289 -367.935)" fill="#4d5f66"/>
                <path id="Path_81" data-name="Path 81" d="M597.723,404.136l2.461-1.643a18.748,18.748,0,0,0,1.9-.389l-2.461,1.643a19.033,19.033,0,0,1-1.9.389" transform="translate(-575.032 -367.492)" fill="#4d5f66"/>
                <path id="Path_82" data-name="Path 82" d="M603.228,402.117l2.461-1.643a18.841,18.841,0,0,0,2.269-.743l-2.461,1.642a18.773,18.773,0,0,1-2.269.744" transform="translate(-578.51 -365.993)" fill="#4d5f66"/>
                <path id="Path_83" data-name="Path 83" d="M609.391,398.284l2.461-1.642a18.678,18.678,0,0,0,3.42-1.8l-2.46,1.642a18.646,18.646,0,0,1-3.421,1.8" transform="translate(-582.404 -362.904)" fill="#4d5f66"/>
              </g>
            </g>
          </g>
          <g id="Group_18" data-name="Group 18" transform="translate(7.744)" style="isolation: isolate">
            <path id="Path_85" data-name="Path 85" d="M557.128,302.208l2.461-1.643a19.67,19.67,0,0,1,10.968-3.287,20.75,20.75,0,0,1,14.4,5.841l-2.461,1.642a20.753,20.753,0,0,0-14.4-5.841A19.665,19.665,0,0,0,557.128,302.208Z" transform="translate(-557.128 -297.278)" fill="#4d5f66"/>
            <g id="Group_17" data-name="Group 17" clip-path="url(#clip-path-5)">
              <g id="Group_16" data-name="Group 16" style="isolation: isolate">
                <path id="Path_86" data-name="Path 86" d="M557.128,304.629l2.461-1.642a19.425,19.425,0,0,1,3.565-1.876l-2.461,1.643a19.391,19.391,0,0,0-3.565,1.876" transform="translate(-557.128 -299.7)" fill="#4d5f66"/>
                <path id="Path_87" data-name="Path 87" d="M566.809,301.423l2.461-1.643a19.614,19.614,0,0,1,2.365-.775l-2.461,1.643a19.47,19.47,0,0,0-2.365.775" transform="translate(-563.244 -298.369)" fill="#4d5f66"/>
                <path id="Path_88" data-name="Path 88" d="M573.232,299.953l2.461-1.643a19.984,19.984,0,0,1,1.975-.4l-2.461,1.643a19.694,19.694,0,0,0-1.976.405" transform="translate(-567.303 -297.674)" fill="#4d5f66"/>
                <path id="Path_89" data-name="Path 89" d="M578.6,299.218l2.461-1.642q.887-.135,1.8-.192l-2.461,1.642q-.912.056-1.8.192" transform="translate(-570.693 -297.345)" fill="#4d5f66"/>
                <path id="Path_90" data-name="Path 90" d="M583.487,298.959l2.461-1.642q.626-.039,1.262-.039c.152,0,.3,0,.456,0l-2.461,1.643c-.152,0-.3-.005-.456-.005q-.637,0-1.263.039" transform="translate(-573.782 -297.278)" fill="#4d5f66"/>
                <path id="Path_91" data-name="Path 91" d="M588.154,298.934l2.461-1.643q.831.019,1.648.1l-2.461,1.642q-.816-.083-1.648-.1" transform="translate(-576.73 -297.286)" fill="#4d5f66"/>
                <path id="Path_92" data-name="Path 92" d="M592.629,299.212l2.461-1.642q.811.083,1.6.229l-2.461,1.643q-.793-.145-1.6-.229" transform="translate(-579.558 -297.462)" fill="#4d5f66"/>
                <path id="Path_93" data-name="Path 93" d="M596.988,299.834l2.461-1.643q.81.149,1.6.36l-2.461,1.642q-.789-.21-1.6-.36" transform="translate(-582.312 -297.855)" fill="#4d5f66"/>
                <path id="Path_94" data-name="Path 94" d="M601.334,300.811l2.461-1.642q.83.222,1.633.51l-2.461,1.642q-.8-.288-1.633-.51" transform="translate(-585.058 -298.473)" fill="#4d5f66"/>
                <path id="Path_95" data-name="Path 95" d="M605.768,302.2l2.461-1.642q.875.314,1.715.7l-2.461,1.643q-.839-.389-1.715-.7" transform="translate(-587.859 -299.348)" fill="#4d5f66"/>
                <path id="Path_96" data-name="Path 96" d="M610.426,304.106l2.461-1.643a20.982,20.982,0,0,1,1.89,1l-2.461,1.643a20.8,20.8,0,0,0-1.89-1" transform="translate(-590.802 -300.554)" fill="#4d5f66"/>
                <path id="Path_97" data-name="Path 97" d="M615.559,306.809l2.461-1.643a21.057,21.057,0,0,1,2.3,1.584l-2.461,1.643a21.024,21.024,0,0,0-2.3-1.584" transform="translate(-594.045 -302.262)" fill="#4d5f66"/>
                <path id="Path_98" data-name="Path 98" d="M621.812,311.11l2.461-1.642q.808.639,1.549,1.353l-2.461,1.642q-.74-.713-1.549-1.353" transform="translate(-597.996 -304.98)" fill="#4d5f66"/>
              </g>
            </g>
          </g>
          <g id="Group_21" data-name="Group 21" transform="translate(30.874 5.841)" style="isolation: isolate">
            <path id="Path_100" data-name="Path 100" d="M622.408,343.921l-2.461,1.643A19.238,19.238,0,0,0,628.5,328.9a20.433,20.433,0,0,0-6.318-14.113l2.461-1.642a20.432,20.432,0,0,1,6.318,14.113,19.238,19.238,0,0,1-8.554,16.666Z" transform="translate(-619.947 -313.143)" fill="#4d5f66"/>
            <g id="Group_20" data-name="Group 20" clip-path="url(#clip-path-6)">
              <g id="Group_19" data-name="Group 19" style="isolation: isolate">
                <path id="Path_101" data-name="Path 101" d="M626.02,314.785l2.461-1.642a20.8,20.8,0,0,1,4.451,6.228l-2.461,1.643a20.8,20.8,0,0,0-4.451-6.229" transform="translate(-623.784 -313.143)" fill="#4d5f66"/>
                <path id="Path_102" data-name="Path 102" d="M638.108,331.7l2.461-1.643a20.243,20.243,0,0,1,.964,2.5l-2.461,1.643a20.209,20.209,0,0,0-.964-2.5" transform="translate(-631.421 -323.831)" fill="#4d5f66"/>
                <path id="Path_103" data-name="Path 103" d="M640.726,338.478l2.461-1.642a20.229,20.229,0,0,1,.508,1.975l-2.461,1.642a20.135,20.135,0,0,0-.508-1.975" transform="translate(-633.075 -328.112)" fill="#4d5f66"/>
                <path id="Path_104" data-name="Path 104" d="M642.106,343.841l2.461-1.643q.176.868.277,1.761l-2.461,1.643c-.066-.6-.16-1.182-.277-1.761" transform="translate(-633.947 -331.501)" fill="#4d5f66"/>
                <path id="Path_105" data-name="Path 105" d="M642.859,348.624l2.461-1.643q.093.817.118,1.652l-2.461,1.643q-.025-.833-.118-1.652" transform="translate(-634.423 -334.522)" fill="#4d5f66"/>
                <path id="Path_106" data-name="Path 106" d="M643.153,353.11l2.461-1.643v0q.024.8-.015,1.579l-2.461,1.642q.039-.781.015-1.579v0" transform="translate(-634.599 -337.356)" fill="#4d5f66"/>
                <path id="Path_107" data-name="Path 107" d="M642.907,357.4l2.461-1.642q-.038.773-.135,1.53l-2.46,1.642q.1-.756.135-1.53" transform="translate(-634.368 -340.069)" fill="#4d5f66"/>
                <path id="Path_108" data-name="Path 108" d="M642.333,361.559l2.46-1.642q-.1.769-.256,1.518l-2.461,1.642q.157-.749.256-1.518" transform="translate(-633.929 -342.695)" fill="#4d5f66"/>
                <path id="Path_109" data-name="Path 109" d="M641.408,365.681l2.461-1.643q-.164.783-.39,1.542l-2.461,1.643q.225-.758.39-1.542" transform="translate(-633.26 -345.299)" fill="#4d5f66"/>
                <path id="Path_110" data-name="Path 110" d="M640.061,369.869l2.461-1.643q-.244.821-.558,1.609l-2.46,1.643q.312-.789.557-1.609" transform="translate(-632.303 -347.945)" fill="#4d5f66"/>
                <path id="Path_111" data-name="Path 111" d="M638.123,374.239l2.46-1.643a19.147,19.147,0,0,1-.8,1.761L637.318,376q.445-.856.8-1.76" transform="translate(-630.922 -350.706)" fill="#4d5f66"/>
                <path id="Path_112" data-name="Path 112" d="M635.177,379.02l2.461-1.642a19.128,19.128,0,0,1-1.247,2.069l-2.461,1.642a19.129,19.129,0,0,0,1.247-2.069" transform="translate(-628.781 -353.727)" fill="#4d5f66"/>
                <path id="Path_113" data-name="Path 113" d="M625.1,384.64,627.556,383a19.282,19.282,0,0,1-5.148,5.059l-2.461,1.643a19.286,19.286,0,0,0,5.148-5.059" transform="translate(-619.947 -357.277)" fill="#4d5f66"/>
              </g>
            </g>
          </g>
        </g>
      </g>
    </g>
    <g id="Group_36" data-name="Group 36" transform="translate(534.435 296.112)">
      <g id="Group_35" data-name="Group 35" transform="translate(0 0)">
        <g id="Group_34" data-name="Group 34" style="isolation: isolate">
          <g id="Group_27" data-name="Group 27" transform="translate(0 3.056)" style="isolation: isolate">
            <path id="Path_115" data-name="Path 115" d="M561.561,333.8l2.461-1.643a12.74,12.74,0,0,0-1.878,1.529,12.1,12.1,0,0,0-3.639,9.038,12.878,12.878,0,0,0,4.178,9.038,14.04,14.04,0,0,0,9.574,3.755,13.4,13.4,0,0,0,7.47-2.226l-1.23.821-1.23.821a13.4,13.4,0,0,1-7.47,2.226,14.04,14.04,0,0,1-9.573-3.755,12.878,12.878,0,0,1-4.179-9.038,12.1,12.1,0,0,1,3.639-9.038A12.733,12.733,0,0,1,561.561,333.8Z" transform="translate(-556.039 -332.158)" fill="#4d5f66"/>
            <g id="Group_26" data-name="Group 26" clip-path="url(#clip-path-7)">
              <g id="Group_25" data-name="Group 25" transform="translate(0)" style="isolation: isolate">
                <path id="Path_116" data-name="Path 116" d="M565.251,333.8l2.461-1.643a12.74,12.74,0,0,0-1.878,1.529,12.447,12.447,0,0,0-1.494,1.777l-2.461,1.642a12.4,12.4,0,0,1,1.495-1.776,12.734,12.734,0,0,1,1.878-1.529" transform="translate(-559.729 -332.158)" fill="#4d5f66"/>
                <path id="Path_117" data-name="Path 117" d="M560.514,342.778l2.461-1.642a12.177,12.177,0,0,0-.8,1.32l-2.461,1.642a12.208,12.208,0,0,1,.8-1.319" transform="translate(-558.363 -337.83)" fill="#4d5f66"/>
                <path id="Path_118" data-name="Path 118" d="M558.852,346.362l2.461-1.642a12.082,12.082,0,0,0-.5,1.1l-2.461,1.643q.225-.566.5-1.1" transform="translate(-557.497 -340.095)" fill="#4d5f66"/>
                <path id="Path_119" data-name="Path 119" d="M557.747,349.361l2.461-1.643q-.2.494-.35,1.008l-2.461,1.642q.154-.513.35-1.008" transform="translate(-556.897 -341.989)" fill="#4d5f66"/>
                <path id="Path_120" data-name="Path 120" d="M556.981,352.1l2.461-1.642q-.141.472-.243.96l-2.461,1.643q.1-.487.243-.96" transform="translate(-556.48 -343.719)" fill="#4d5f66"/>
                <path id="Path_121" data-name="Path 121" d="M556.465,354.706l2.461-1.643q-.1.465-.159.943l-2.461,1.642q.062-.477.159-.942" transform="translate(-556.208 -345.366)" fill="#4d5f66"/>
                <path id="Path_122" data-name="Path 122" d="M556.162,357.265l2.461-1.642q-.06.469-.084.949l-2.461,1.643q.024-.48.084-.949" transform="translate(-556.064 -346.983)" fill="#4d5f66"/>
                <path id="Path_123" data-name="Path 123" d="M556.053,359.843l2.461-1.643q-.024.484-.009.979h0l-2.46,1.643h0q-.015-.494.009-.979" transform="translate(-556.039 -348.611)" fill="#4d5f66"/>
                <path id="Path_124" data-name="Path 124" d="M556.055,362.5l2.46-1.643q.015.517.073,1.024l-2.461,1.642c-.038-.338-.063-.68-.073-1.024" transform="translate(-556.049 -350.293)" fill="#4d5f66"/>
                <path id="Path_125" data-name="Path 125" d="M556.252,365.285l2.461-1.642q.062.551.172,1.089l-2.461,1.643q-.109-.538-.172-1.09" transform="translate(-556.173 -352.05)" fill="#4d5f66"/>
                <path id="Path_126" data-name="Path 126" d="M556.719,368.245l2.461-1.643a12.311,12.311,0,0,0,.317,1.23l-2.461,1.643a12.464,12.464,0,0,1-.317-1.23" transform="translate(-556.469 -353.92)" fill="#4d5f66"/>
                <path id="Path_127" data-name="Path 127" d="M557.579,371.585l2.461-1.642a12.57,12.57,0,0,0,.6,1.557l-2.461,1.642a12.624,12.624,0,0,1-.6-1.557" transform="translate(-557.012 -356.031)" fill="#4d5f66"/>
                <path id="Path_128" data-name="Path 128" d="M559.213,375.816l2.461-1.643a13.349,13.349,0,0,0,3.015,4.136q.412.383.855.734l-2.46,1.643q-.444-.35-.855-.734a13.348,13.348,0,0,1-3.016-4.135" transform="translate(-558.044 -358.703)" fill="#4d5f66"/>
                <path id="Path_129" data-name="Path 129" d="M569.725,389.04l2.46-1.642a13.946,13.946,0,0,0,1.529,1.051l-2.461,1.643a14.05,14.05,0,0,1-1.529-1.052" transform="translate(-564.686 -367.059)" fill="#4d5f66"/>
                <path id="Path_130" data-name="Path 130" d="M573.878,391.9l2.461-1.643a13.943,13.943,0,0,0,1.268.668l-2.461,1.643a14.029,14.029,0,0,1-1.268-.668" transform="translate(-567.31 -368.862)" fill="#4d5f66"/>
                <path id="Path_131" data-name="Path 131" d="M577.323,393.71l2.461-1.643q.569.264,1.165.478l-2.461,1.643q-.6-.214-1.165-.478" transform="translate(-569.486 -370.009)" fill="#4d5f66"/>
                <path id="Path_132" data-name="Path 132" d="M580.487,395.007l2.461-1.643q.546.2,1.112.347l-2.461,1.643q-.566-.152-1.112-.347" transform="translate(-571.485 -370.828)" fill="#4d5f66"/>
                <path id="Path_133" data-name="Path 133" d="M583.506,395.949l2.461-1.642c.359.1.725.178,1.094.246L584.6,396.2q-.554-.1-1.094-.246" transform="translate(-573.393 -371.424)" fill="#4d5f66"/>
                <path id="Path_134" data-name="Path 134" d="M586.477,396.617l2.461-1.643q.544.1,1.1.157l-2.461,1.643q-.557-.057-1.1-.157" transform="translate(-575.27 -371.846)" fill="#4d5f66"/>
                <path id="Path_135" data-name="Path 135" d="M589.47,397.044l2.461-1.643q.561.057,1.134.071l-2.461,1.642q-.572-.013-1.134-.07" transform="translate(-577.161 -372.116)" fill="#4d5f66"/>
                <path id="Path_136" data-name="Path 136" d="M592.549,397.2l2.461-1.642c.1,0,.209,0,.314,0q.438,0,.869-.026l-2.461,1.642q-.431.027-.869.027c-.105,0-.21,0-.315,0" transform="translate(-579.106 -372.197)" fill="#4d5f66"/>
                <path id="Path_137" data-name="Path 137" d="M595.765,396.947l2.461-1.642q.627-.039,1.237-.132L597,396.815q-.609.093-1.237.132" transform="translate(-581.138 -371.971)" fill="#4d5f66"/>
                <path id="Path_138" data-name="Path 138" d="M599.124,396.337l2.461-1.642a13.57,13.57,0,0,0,1.355-.278l-2.461,1.642a13.266,13.266,0,0,1-1.355.278" transform="translate(-583.26 -371.494)" fill="#4d5f66"/>
                <path id="Path_139" data-name="Path 139" d="M602.8,395.157l2.461-1.642a13.324,13.324,0,0,0,1.608-.526l-2.461,1.642a13.233,13.233,0,0,1-1.607.527" transform="translate(-585.585 -370.591)" fill="#4d5f66"/>
                <path id="Path_140" data-name="Path 140" d="M607.17,392.463l2.461-1.642a13.075,13.075,0,0,0,2.4-1.263l-2.461,1.642a13.043,13.043,0,0,1-2.4,1.263" transform="translate(-588.344 -368.424)" fill="#4d5f66"/>
              </g>
            </g>
          </g>
          <g id="Group_30" data-name="Group 30" transform="translate(5.058)" style="isolation: isolate">
            <path id="Path_142" data-name="Path 142" d="M569.775,327.859l2.461-1.643a14.2,14.2,0,0,1,7.911-2.358,14.873,14.873,0,0,1,10.144,3.982l-2.461,1.642a14.871,14.871,0,0,0-10.143-3.982A14.2,14.2,0,0,0,569.775,327.859Z" transform="translate(-569.775 -323.859)" fill="#4d5f66"/>
            <g id="Group_29" data-name="Group 29" clip-path="url(#clip-path-8)">
              <g id="Group_28" data-name="Group 28" style="isolation: isolate">
                <path id="Path_143" data-name="Path 143" d="M569.775,329.609l2.461-1.643a13.843,13.843,0,0,1,2.545-1.338l-2.461,1.643a13.793,13.793,0,0,0-2.545,1.338" transform="translate(-569.775 -325.609)" fill="#4d5f66"/>
                <path id="Path_144" data-name="Path 144" d="M576.686,327.314l2.461-1.643a14.015,14.015,0,0,1,1.7-.558l-2.461,1.642a14.085,14.085,0,0,0-1.7.558" transform="translate(-574.141 -324.652)" fill="#4d5f66"/>
                <path id="Path_145" data-name="Path 145" d="M581.311,326.251l2.461-1.642a14.238,14.238,0,0,1,1.435-.294l-2.46,1.643a14.316,14.316,0,0,0-1.435.294" transform="translate(-577.063 -324.147)" fill="#4d5f66"/>
                <path id="Path_146" data-name="Path 146" d="M585.209,325.717l2.46-1.643q.645-.1,1.309-.14l-2.461,1.643c-.442.027-.879.074-1.308.14" transform="translate(-579.526 -323.907)" fill="#4d5f66"/>
                <path id="Path_147" data-name="Path 147" d="M588.762,325.529l2.461-1.643q.457-.028.92-.028.167,0,.332,0l-2.46,1.642c-.111,0-.221,0-.332,0q-.463,0-.92.028" transform="translate(-581.771 -323.859)" fill="#4d5f66"/>
                <path id="Path_148" data-name="Path 148" d="M592.163,325.511l2.46-1.642q.605.013,1.2.074l-2.461,1.643c-.4-.041-.8-.066-1.2-.075" transform="translate(-583.92 -323.865)" fill="#4d5f66"/>
                <path id="Path_149" data-name="Path 149" d="M595.42,325.713l2.461-1.643q.59.061,1.166.167l-2.461,1.643q-.577-.106-1.167-.166" transform="translate(-585.978 -323.992)" fill="#4d5f66"/>
                <path id="Path_150" data-name="Path 150" d="M598.589,326.166l2.461-1.643q.588.108,1.159.261l-2.461,1.642q-.571-.152-1.159-.261" transform="translate(-587.98 -324.279)" fill="#4d5f66"/>
                <path id="Path_151" data-name="Path 151" d="M601.736,326.873l2.461-1.643q.6.16,1.178.367l-2.461,1.643q-.578-.208-1.177-.367" transform="translate(-589.968 -324.726)" fill="#4d5f66"/>
                <path id="Path_152" data-name="Path 152" d="M604.934,327.871l2.461-1.643q.63.227,1.234.507l-2.461,1.642q-.6-.279-1.235-.506" transform="translate(-591.989 -325.356)" fill="#4d5f66"/>
                <path id="Path_153" data-name="Path 153" d="M608.287,329.246l2.461-1.642a14.828,14.828,0,0,1,1.344.707l-2.461,1.643a14.831,14.831,0,0,0-1.344-.708" transform="translate(-594.107 -326.225)" fill="#4d5f66"/>
                <path id="Path_154" data-name="Path 154" d="M611.936,331.167l2.461-1.643a14.757,14.757,0,0,1,1.621,1.114l-2.461,1.643a14.9,14.9,0,0,0-1.621-1.114" transform="translate(-596.413 -327.439)" fill="#4d5f66"/>
                <path id="Path_155" data-name="Path 155" d="M616.338,334.194l2.461-1.643q.471.373.91.782l-2.461,1.642q-.438-.409-.91-.781" transform="translate(-599.194 -329.351)" fill="#4d5f66"/>
              </g>
            </g>
          </g>
          <g id="Group_33" data-name="Group 33" transform="translate(21.693 3.982)" style="isolation: isolate">
            <path id="Path_157" data-name="Path 157" d="M617.416,355.58l-2.46,1.643a13.58,13.58,0,0,0,2-1.624,12.919,12.919,0,0,0,3.876-9.641,13.743,13.743,0,0,0-4.453-9.641l2.461-1.642a13.742,13.742,0,0,1,4.453,9.641,12.918,12.918,0,0,1-3.876,9.641A13.543,13.543,0,0,1,617.416,355.58Z" transform="translate(-614.956 -334.674)" fill="#4d5f66"/>
            <g id="Group_32" data-name="Group 32" clip-path="url(#clip-path-9)">
              <g id="Group_31" data-name="Group 31" style="isolation: isolate">
                <path id="Path_158" data-name="Path 158" d="M618.81,336.316l2.461-1.642a14.189,14.189,0,0,1,3.21,4.4l-2.461,1.642a14.188,14.188,0,0,0-3.21-4.4" transform="translate(-617.391 -334.674)" fill="#4d5f66"/>
                <path id="Path_159" data-name="Path 159" d="M627.527,348.275l2.461-1.642a13.678,13.678,0,0,1,.643,1.665l-2.46,1.643a13.677,13.677,0,0,0-.644-1.665" transform="translate(-622.898 -342.23)" fill="#4d5f66"/>
                <path id="Path_160" data-name="Path 160" d="M629.275,352.8l2.46-1.643a13.453,13.453,0,0,1,.338,1.315l-2.461,1.642a13.488,13.488,0,0,0-.338-1.315" transform="translate(-624.003 -345.087)" fill="#4d5f66"/>
                <path id="Path_161" data-name="Path 161" d="M630.193,356.37l2.461-1.642q.117.574.184,1.164l-2.461,1.642c-.044-.393-.106-.781-.184-1.164" transform="translate(-624.583 -347.344)" fill="#4d5f66"/>
                <path id="Path_162" data-name="Path 162" d="M630.692,359.532l2.461-1.642q.061.541.078,1.092l-2.461,1.642q-.017-.551-.078-1.092" transform="translate(-624.898 -349.341)" fill="#4d5f66"/>
                <path id="Path_163" data-name="Path 163" d="M630.886,362.5l2.461-1.642h0q.016.526-.01,1.044l-2.461,1.643q.025-.517.01-1.044v0" transform="translate(-625.014 -351.215)" fill="#4d5f66"/>
                <path id="Path_164" data-name="Path 164" d="M630.722,365.336l2.461-1.643q-.025.512-.089,1.013l-2.461,1.643q.065-.5.09-1.013" transform="translate(-624.861 -353.008)" fill="#4d5f66"/>
                <path id="Path_165" data-name="Path 165" d="M630.342,368.087l2.461-1.643q-.066.51-.17,1.008l-2.46,1.642q.1-.5.17-1.008" transform="translate(-624.57 -354.746)" fill="#4d5f66"/>
                <path id="Path_166" data-name="Path 166" d="M629.727,370.824l2.461-1.642q-.109.521-.259,1.026l-2.461,1.643c.1-.337.187-.679.26-1.027" transform="translate(-624.124 -356.476)" fill="#4d5f66"/>
                <path id="Path_167" data-name="Path 167" d="M628.825,373.612l2.461-1.643q-.164.55-.374,1.078l-2.461,1.642q.211-.529.374-1.078" transform="translate(-623.482 -358.237)" fill="#4d5f66"/>
                <path id="Path_168" data-name="Path 168" d="M627.525,376.54l2.461-1.643q-.241.6-.539,1.18l-2.461,1.642a12.733,12.733,0,0,0,.539-1.179" transform="translate(-622.557 -360.087)" fill="#4d5f66"/>
                <path id="Path_169" data-name="Path 169" d="M625.532,379.743l2.461-1.642a13.052,13.052,0,0,1-.848,1.4l-2.461,1.642a12.923,12.923,0,0,0,.847-1.405" transform="translate(-621.103 -362.111)" fill="#4d5f66"/>
                <path id="Path_170" data-name="Path 170" d="M618.538,383.559,621,381.917a13.234,13.234,0,0,1-1.587,1.887,13.543,13.543,0,0,1-2,1.624l-2.46,1.643a13.578,13.578,0,0,0,2-1.625,13.213,13.213,0,0,0,1.587-1.887" transform="translate(-614.956 -364.522)" fill="#4d5f66"/>
              </g>
            </g>
          </g>
        </g>
      </g>
    </g>
    <g id="Group_48" data-name="Group 48" transform="translate(539.352 301.971)">
      <g id="Group_47" data-name="Group 47" transform="translate(0)">
        <g id="Group_46" data-name="Group 46" style="isolation: isolate">
          <g id="Group_39" data-name="Group 39" transform="translate(0 2.246)" style="isolation: isolate">
            <path id="Path_172" data-name="Path 172" d="M572.893,347.513l2.461-1.643a8.083,8.083,0,0,0-1.19.968,7.666,7.666,0,0,0-2.306,5.721,8.156,8.156,0,0,0,2.648,5.722,8.918,8.918,0,0,0,6.08,2.382,8.516,8.516,0,0,0,4.747-1.413l-2.461,1.643a8.517,8.517,0,0,1-4.747,1.414,8.922,8.922,0,0,1-6.08-2.383A8.159,8.159,0,0,1,569.4,354.2a7.665,7.665,0,0,1,2.306-5.721A8.091,8.091,0,0,1,572.893,347.513Z" transform="translate(-569.393 -345.871)" fill="#4d5f66"/>
            <g id="Group_38" data-name="Group 38" clip-path="url(#clip-path-10)">
              <g id="Group_37" data-name="Group 37" transform="translate(0)" style="isolation: isolate">
                <path id="Path_173" data-name="Path 173" d="M575.229,347.513l2.461-1.643a8.092,8.092,0,0,0-1.19.968,7.919,7.919,0,0,0-.948,1.127l-2.461,1.643a7.859,7.859,0,0,1,.948-1.127,8.094,8.094,0,0,1,1.19-.968" transform="translate(-571.729 -345.871)" fill="#4d5f66"/>
                <path id="Path_174" data-name="Path 174" d="M572.226,353.2l2.461-1.643a7.645,7.645,0,0,0-.5.835l-2.461,1.642a7.79,7.79,0,0,1,.5-.835" transform="translate(-570.864 -349.466)" fill="#4d5f66"/>
                <path id="Path_175" data-name="Path 175" d="M571.174,355.472l2.461-1.642q-.176.341-.319.7l-2.461,1.643q.143-.358.319-.7" transform="translate(-570.317 -350.9)" fill="#4d5f66"/>
                <path id="Path_176" data-name="Path 176" d="M570.475,357.371l2.461-1.643q-.124.313-.222.638l-2.461,1.642q.1-.325.222-.637" transform="translate(-569.936 -352.099)" fill="#4d5f66"/>
                <path id="Path_177" data-name="Path 177" d="M569.989,359.1l2.461-1.642q-.088.3-.153.608l-2.461,1.642q.065-.309.154-.608" transform="translate(-569.672 -353.194)" fill="#4d5f66"/>
                <path id="Path_178" data-name="Path 178" d="M569.662,360.755l2.461-1.642c-.041.2-.074.4-.1.6l-2.461,1.643q.039-.3.1-.6" transform="translate(-569.5 -354.237)" fill="#4d5f66"/>
                <path id="Path_179" data-name="Path 179" d="M569.472,362.378l2.461-1.643c-.025.2-.043.4-.053.6l-2.461,1.643c.01-.2.028-.4.053-.6" transform="translate(-569.409 -355.262)" fill="#4d5f66"/>
                <path id="Path_180" data-name="Path 180" d="M569.4,364.009l2.461-1.642c-.01.2-.013.4-.007.61L569.4,364.62c-.006-.205,0-.408.007-.61" transform="translate(-569.393 -356.293)" fill="#4d5f66"/>
                <path id="Path_181" data-name="Path 181" d="M569.4,365.667l2.461-1.642v0q.01.325.046.645l-2.461,1.642q-.036-.319-.046-.645v0" transform="translate(-569.398 -357.341)" fill="#4d5f66"/>
                <path id="Path_182" data-name="Path 182" d="M569.527,367.431l2.461-1.642q.04.349.109.69l-2.461,1.642c-.046-.226-.082-.457-.109-.69" transform="translate(-569.477 -358.455)" fill="#4d5f66"/>
                <path id="Path_183" data-name="Path 183" d="M569.822,369.306l2.461-1.642a7.827,7.827,0,0,0,.2.779l-2.461,1.643a8.014,8.014,0,0,1-.2-.78" transform="translate(-569.664 -359.64)" fill="#4d5f66"/>
                <path id="Path_184" data-name="Path 184" d="M570.367,371.423l2.461-1.643a8.016,8.016,0,0,0,.381.986l-2.461,1.642a8.049,8.049,0,0,1-.381-.986" transform="translate(-570.008 -360.977)" fill="#4d5f66"/>
                <path id="Path_185" data-name="Path 185" d="M571.4,374.1l2.461-1.642a8.461,8.461,0,0,0,1.912,2.621q.26.241.539.463l-2.461,1.643c-.186-.147-.366-.3-.539-.463A8.467,8.467,0,0,1,571.4,374.1" transform="translate(-570.662 -362.669)" fill="#4d5f66"/>
                <path id="Path_186" data-name="Path 186" d="M578.058,382.477l2.461-1.643a8.8,8.8,0,0,0,.972.668l-2.461,1.643a8.809,8.809,0,0,1-.972-.668" transform="translate(-574.867 -367.961)" fill="#4d5f66"/>
                <path id="Path_187" data-name="Path 187" d="M580.7,384.291l2.461-1.643a8.969,8.969,0,0,0,.806.425l-2.461,1.642a8.88,8.88,0,0,1-.806-.425" transform="translate(-576.535 -369.107)" fill="#4d5f66"/>
                <path id="Path_188" data-name="Path 188" d="M582.886,385.444l2.461-1.642c.241.111.488.213.74.3l-2.46,1.643q-.379-.136-.74-.3" transform="translate(-577.918 -369.836)" fill="#4d5f66"/>
                <path id="Path_189" data-name="Path 189" d="M584.9,386.268l2.46-1.643q.347.125.706.22l-2.461,1.643c-.239-.064-.475-.138-.706-.22" transform="translate(-579.188 -370.356)" fill="#4d5f66"/>
                <path id="Path_190" data-name="Path 190" d="M586.814,386.866l2.461-1.643q.343.092.7.157l-2.461,1.643q-.353-.065-.7-.156" transform="translate(-580.399 -370.734)" fill="#4d5f66"/>
                <path id="Path_191" data-name="Path 191" d="M588.7,387.291l2.461-1.642q.346.063.7.1l-2.461,1.643q-.354-.036-.7-.1" transform="translate(-581.594 -371.003)" fill="#4d5f66"/>
                <path id="Path_192" data-name="Path 192" d="M590.6,387.562l2.461-1.643q.357.038.721.045l-2.461,1.643q-.364-.008-.722-.045" transform="translate(-582.795 -371.174)" fill="#4d5f66"/>
                <path id="Path_193" data-name="Path 193" d="M592.565,387.659l2.461-1.643.2,0q.279,0,.553-.017l-2.461,1.643q-.273.017-.553.017l-.2,0" transform="translate(-584.033 -371.226)" fill="#4d5f66"/>
                <path id="Path_194" data-name="Path 194" d="M594.608,387.5l2.461-1.642c.265-.017.528-.045.786-.084l-2.461,1.643c-.258.039-.521.067-.786.084" transform="translate(-585.324 -371.082)" fill="#4d5f66"/>
                <path id="Path_195" data-name="Path 195" d="M596.743,387.114l2.461-1.643a8.584,8.584,0,0,0,.861-.176l-2.461,1.642a8.677,8.677,0,0,1-.861.177" transform="translate(-586.673 -370.779)" fill="#4d5f66"/>
                <path id="Path_196" data-name="Path 196" d="M599.082,386.363l2.461-1.642a8.488,8.488,0,0,0,1.021-.335l-2.461,1.643a8.335,8.335,0,0,1-1.021.334" transform="translate(-588.15 -370.205)" fill="#4d5f66"/>
                <path id="Path_197" data-name="Path 197" d="M601.856,384.652l2.461-1.642a8.314,8.314,0,0,0,1.525-.8l-2.461,1.643a8.29,8.29,0,0,1-1.525.8" transform="translate(-589.903 -368.829)" fill="#4d5f66"/>
              </g>
            </g>
          </g>
          <g id="Group_42" data-name="Group 42" transform="translate(3.033)" style="isolation: isolate">
            <path id="Path_199" data-name="Path 199" d="M577.631,342.961l2.461-1.643a9.313,9.313,0,0,1,5.189-1.547,9.754,9.754,0,0,1,6.649,2.609l-2.461,1.643a9.751,9.751,0,0,0-6.648-2.61A9.319,9.319,0,0,0,577.631,342.961Z" transform="translate(-577.631 -339.771)" fill="#4d5f66"/>
            <g id="Group_41" data-name="Group 41" clip-path="url(#clip-path-11)">
              <g id="Group_40" data-name="Group 40" style="isolation: isolate">
                <path id="Path_200" data-name="Path 200" d="M577.631,344.109l2.461-1.643a9.059,9.059,0,0,1,1.671-.878l-2.461,1.642a9.111,9.111,0,0,0-1.671.879" transform="translate(-577.631 -340.92)" fill="#4d5f66"/>
                <path id="Path_201" data-name="Path 201" d="M582.169,342.6l2.461-1.642a9.206,9.206,0,0,1,1.117-.367l-2.461,1.643a9.354,9.354,0,0,0-1.117.366" transform="translate(-580.498 -340.29)" fill="#4d5f66"/>
                <path id="Path_202" data-name="Path 202" d="M585.2,341.9l2.461-1.642a9.386,9.386,0,0,1,.941-.193l-2.461,1.643a9.485,9.485,0,0,0-.941.193" transform="translate(-582.416 -339.959)" fill="#4d5f66"/>
                <path id="Path_203" data-name="Path 203" d="M587.759,341.555l2.461-1.643q.423-.064.858-.092l-2.461,1.643q-.436.026-.858.091" transform="translate(-584.03 -339.802)" fill="#4d5f66"/>
                <path id="Path_204" data-name="Path 204" d="M590.09,341.432l2.461-1.643c.2-.012.4-.018.6-.018l.217,0-2.46,1.643-.217,0q-.3,0-.6.019" transform="translate(-585.503 -339.771)" fill="#4d5f66"/>
                <path id="Path_205" data-name="Path 205" d="M592.316,341.419l2.46-1.642q.4.009.786.049l-2.461,1.643q-.389-.04-.786-.049" transform="translate(-586.909 -339.775)" fill="#4d5f66"/>
                <path id="Path_206" data-name="Path 206" d="M594.45,341.553l2.461-1.643q.387.04.765.109l-2.461,1.643q-.378-.07-.764-.109" transform="translate(-588.257 -339.859)" fill="#4d5f66"/>
                <path id="Path_207" data-name="Path 207" d="M596.526,341.85l2.461-1.643q.385.07.76.17l-2.461,1.643q-.374-.1-.76-.17" transform="translate(-589.569 -340.046)" fill="#4d5f66"/>
                <path id="Path_208" data-name="Path 208" d="M598.59,342.313l2.461-1.643q.393.1.772.241l-2.46,1.643q-.379-.136-.772-.241" transform="translate(-590.873 -340.339)" fill="#4d5f66"/>
                <path id="Path_209" data-name="Path 209" d="M600.687,342.967l2.46-1.642q.414.149.81.332L601.5,343.3q-.4-.183-.81-.332" transform="translate(-592.198 -340.753)" fill="#4d5f66"/>
                <path id="Path_210" data-name="Path 210" d="M602.886,343.868l2.461-1.642a9.743,9.743,0,0,1,.882.464l-2.461,1.643a9.845,9.845,0,0,0-.882-.464" transform="translate(-593.587 -341.322)" fill="#4d5f66"/>
                <path id="Path_211" data-name="Path 211" d="M605.281,345.13l2.461-1.643a9.676,9.676,0,0,1,1.063.731l-2.461,1.642a9.719,9.719,0,0,0-1.063-.731" transform="translate(-595.1 -342.119)" fill="#4d5f66"/>
                <path id="Path_212" data-name="Path 212" d="M608.169,347.115l2.461-1.642q.308.243.595.51l-2.461,1.643q-.286-.267-.594-.511" transform="translate(-596.925 -343.374)" fill="#4d5f66"/>
              </g>
            </g>
          </g>
          <g id="Group_45" data-name="Group 45" transform="translate(13.945 2.609)" style="isolation: isolate">
            <path id="Path_214" data-name="Path 214" d="M609.728,360.571l-2.461,1.642a8.863,8.863,0,0,0,1.3-1.062,8.474,8.474,0,0,0,2.546-6.326,9.013,9.013,0,0,0-2.924-6.325l2.461-1.643a9.012,9.012,0,0,1,2.923,6.325,8.476,8.476,0,0,1-2.545,6.326A8.839,8.839,0,0,1,609.728,360.571Z" transform="translate(-607.267 -346.858)" fill="#4d5f66"/>
            <g id="Group_44" data-name="Group 44" clip-path="url(#clip-path-12)">
              <g id="Group_43" data-name="Group 43" style="isolation: isolate">
                <path id="Path_215" data-name="Path 215" d="M609.783,348.5l2.461-1.643a9.3,9.3,0,0,1,2.108,2.891l-2.46,1.643a9.3,9.3,0,0,0-2.109-2.891" transform="translate(-608.857 -346.858)" fill="#4d5f66"/>
                <path id="Path_216" data-name="Path 216" d="M615.51,356.353l2.46-1.643a8.845,8.845,0,0,1,.422,1.092l-2.461,1.642a8.835,8.835,0,0,0-.422-1.092" transform="translate(-612.475 -351.819)" fill="#4d5f66"/>
                <path id="Path_217" data-name="Path 217" d="M616.655,359.319l2.461-1.642a8.8,8.8,0,0,1,.222.862l-2.461,1.643a8.657,8.657,0,0,0-.222-.863" transform="translate(-613.198 -353.693)" fill="#4d5f66"/>
                <path id="Path_218" data-name="Path 218" d="M617.259,361.662l2.461-1.643q.076.376.12.763l-2.461,1.642c-.029-.257-.07-.512-.12-.763" transform="translate(-613.58 -355.173)" fill="#4d5f66"/>
                <path id="Path_219" data-name="Path 219" d="M617.585,363.734l2.461-1.642q.04.353.051.716l-2.461,1.642q-.01-.362-.051-.716" transform="translate(-613.786 -356.483)" fill="#4d5f66"/>
                <path id="Path_220" data-name="Path 220" d="M617.712,365.678l2.461-1.642h0c.007.23,0,.458-.006.684l-2.461,1.642c.011-.225.014-.454.007-.684h0" transform="translate(-613.862 -357.711)" fill="#4d5f66"/>
                <path id="Path_221" data-name="Path 221" d="M617.6,367.537l2.461-1.642q-.017.336-.059.665l-2.461,1.642q.042-.329.059-.665" transform="translate(-613.761 -358.886)" fill="#4d5f66"/>
                <path id="Path_222" data-name="Path 222" d="M617.355,369.342l2.461-1.642c-.028.223-.066.444-.112.661L617.243,370q.069-.326.112-.661" transform="translate(-613.57 -360.026)" fill="#4d5f66"/>
                <path id="Path_223" data-name="Path 223" d="M616.95,371.137l2.461-1.643q-.071.342-.17.674l-2.461,1.642q.1-.331.17-.673" transform="translate(-613.277 -361.16)" fill="#4d5f66"/>
                <path id="Path_224" data-name="Path 224" d="M616.36,372.966l2.461-1.642q-.107.361-.245.708l-2.461,1.642q.138-.347.245-.708" transform="translate(-612.857 -362.316)" fill="#4d5f66"/>
                <path id="Path_225" data-name="Path 225" d="M615.508,374.888l2.461-1.642a8.366,8.366,0,0,1-.354.774l-2.461,1.643a8.479,8.479,0,0,0,.354-.774" transform="translate(-612.25 -363.53)" fill="#4d5f66"/>
                <path id="Path_226" data-name="Path 226" d="M614.2,376.989l2.461-1.642a8.429,8.429,0,0,1-.556.922l-2.461,1.642a8.469,8.469,0,0,0,.556-.922" transform="translate(-611.296 -364.858)" fill="#4d5f66"/>
                <path id="Path_227" data-name="Path 227" d="M609.615,379.493l2.461-1.642a8.656,8.656,0,0,1-1.043,1.24,8.834,8.834,0,0,1-1.3,1.062l-2.461,1.643a8.863,8.863,0,0,0,1.3-1.062,8.652,8.652,0,0,0,1.043-1.24" transform="translate(-607.267 -366.44)" fill="#4d5f66"/>
              </g>
            </g>
          </g>
        </g>
      </g>
    </g>
    <g id="Group_59" data-name="Group 59" transform="translate(545.991 311.453)">
      <g id="Group_58" data-name="Group 58" transform="translate(0)">
        <g id="Group_57" data-name="Group 57" style="isolation: isolate">
          <g id="Group_50" data-name="Group 50" transform="translate(0 5.484)" style="isolation: isolate">
            <g id="Group_49" data-name="Group 49" style="isolation: isolate">
              <path id="Path_229" data-name="Path 229" d="M587.424,380.418" transform="translate(-587.424 -380.418)" fill="#4d5f66"/>
            </g>
          </g>
          <g id="Group_53" data-name="Group 53" transform="translate(0.261)" style="isolation: isolate">
            <path id="Path_230" data-name="Path 230" d="M588.134,367.664l2.461-1.642a2.979,2.979,0,0,1,1.653-.5l-2.461,1.643A2.972,2.972,0,0,0,588.134,367.664Z" transform="translate(-588.134 -365.524)" fill="#4d5f66"/>
            <g id="Group_52" data-name="Group 52" clip-path="url(#clip-path-13)">
              <g id="Group_51" data-name="Group 51" style="isolation: isolate">
                <path id="Path_231" data-name="Path 231" d="M588.134,368.033l2.461-1.642a2.92,2.92,0,0,1,.536-.282l-2.461,1.643a2.938,2.938,0,0,0-.536.282" transform="translate(-588.134 -365.893)" fill="#4d5f66"/>
                <path id="Path_232" data-name="Path 232" d="M589.59,367.547l2.461-1.643a2.916,2.916,0,0,1,.359-.119l-2.461,1.643a2.869,2.869,0,0,0-.359.118" transform="translate(-589.054 -365.689)" fill="#4d5f66"/>
                <path id="Path_233" data-name="Path 233" d="M590.566,367.323l2.461-1.643q.148-.038.3-.062l-2.461,1.643a3.01,3.01,0,0,0-.3.062" transform="translate(-589.67 -365.584)" fill="#4d5f66"/>
                <path id="Path_234" data-name="Path 234" d="M591.38,367.212l2.461-1.642c.089-.014.18-.024.272-.029l-2.461,1.643c-.092.005-.183.015-.272.029" transform="translate(-590.185 -365.534)" fill="#4d5f66"/>
                <path id="Path_235" data-name="Path 235" d="M592.12,367.173l2.461-1.643c.061,0,.123-.006.186-.006l-2.461,1.643c-.063,0-.124,0-.186.006" transform="translate(-590.652 -365.524)" fill="#4d5f66"/>
              </g>
            </g>
          </g>
          <g id="Group_56" data-name="Group 56" transform="translate(1.915)" style="isolation: isolate">
            <path id="Path_237" data-name="Path 237" d="M596.916,371.016l-2.461,1.642a2.884,2.884,0,0,0,1.285-2.5,3.124,3.124,0,0,0-3.116-2.994l2.461-1.643a3.124,3.124,0,0,1,3.116,2.995A2.883,2.883,0,0,1,596.916,371.016Z" transform="translate(-592.624 -365.524)" fill="#4d5f66"/>
            <g id="Group_55" data-name="Group 55" clip-path="url(#clip-path-14)">
              <g id="Group_54" data-name="Group 54" style="isolation: isolate">
                <path id="Path_238" data-name="Path 238" d="M592.624,367.167l2.461-1.643h.063l-2.461,1.642h-.063" transform="translate(-592.624 -365.524)" fill="#4d5f66"/>
                <path id="Path_239" data-name="Path 239" d="M592.794,367.169l2.461-1.642c.084,0,.167.007.25.015l-2.46,1.643c-.083-.008-.166-.014-.25-.015" transform="translate(-592.731 -365.526)" fill="#4d5f66"/>
                <path id="Path_240" data-name="Path 240" d="M593.473,367.211l2.46-1.643c.082.008.163.02.243.035l-2.461,1.642q-.12-.022-.243-.035" transform="translate(-593.16 -365.552)" fill="#4d5f66"/>
                <path id="Path_241" data-name="Path 241" d="M594.133,367.306l2.461-1.643c.082.015.163.034.243.055l-2.461,1.642c-.08-.021-.161-.039-.243-.054" transform="translate(-593.577 -365.612)" fill="#4d5f66"/>
                <path id="Path_242" data-name="Path 242" d="M594.793,367.453l2.461-1.642c.084.022.167.049.248.078l-2.461,1.642c-.081-.029-.164-.055-.248-.078" transform="translate(-593.994 -365.705)" fill="#4d5f66"/>
                <path id="Path_243" data-name="Path 243" d="M595.466,367.665l2.461-1.643c.089.032.176.067.26.107l-2.46,1.642c-.085-.04-.172-.075-.261-.107" transform="translate(-594.42 -365.839)" fill="#4d5f66"/>
                <path id="Path_244" data-name="Path 244" d="M596.174,367.955l2.46-1.642a3.082,3.082,0,0,1,.283.149l-2.461,1.643c-.091-.054-.186-.1-.283-.15" transform="translate(-594.867 -366.022)" fill="#4d5f66"/>
                <path id="Path_245" data-name="Path 245" d="M596.942,368.36l2.461-1.643a3.129,3.129,0,0,1,.351.241l-2.461,1.643a3.168,3.168,0,0,0-.35-.241" transform="translate(-595.352 -366.278)" fill="#4d5f66"/>
                <path id="Path_246" data-name="Path 246" d="M597.894,369.016l2.461-1.643a3.141,3.141,0,0,1,.9,1.133l-2.461,1.643a3.136,3.136,0,0,0-.9-1.133" transform="translate(-595.953 -366.692)" fill="#4d5f66"/>
                <path id="Path_247" data-name="Path 247" d="M600.327,372.092l2.461-1.643a3.015,3.015,0,0,1,.143.37l-2.461,1.643a2.954,2.954,0,0,0-.143-.37" transform="translate(-597.491 -368.636)" fill="#4d5f66"/>
                <path id="Path_248" data-name="Path 248" d="M600.715,373.1l2.461-1.643a2.951,2.951,0,0,1,.078.3l-2.461,1.643a3.092,3.092,0,0,0-.078-.3" transform="translate(-597.736 -369.27)" fill="#4d5f66"/>
                <path id="Path_249" data-name="Path 249" d="M600.926,373.911l2.461-1.643c.018.087.032.176.042.265l-2.461,1.643c-.01-.09-.024-.179-.042-.265" transform="translate(-597.869 -369.785)" fill="#4d5f66"/>
                <path id="Path_250" data-name="Path 250" d="M601.039,374.631l2.461-1.643c.009.081.015.161.018.243l-2.461,1.643q0-.123-.018-.243" transform="translate(-597.941 -370.24)" fill="#4d5f66"/>
                <path id="Path_251" data-name="Path 251" d="M601.083,375.291l2.461-1.643v0q0,.119,0,.235l-2.461,1.642c0-.077,0-.156,0-.235v0" transform="translate(-597.967 -370.657)" fill="#4d5f66"/>
                <path id="Path_252" data-name="Path 252" d="M601.046,375.938l2.461-1.642q-.006.116-.02.229l-2.461,1.643c.01-.076.016-.152.02-.23" transform="translate(-597.932 -371.066)" fill="#4d5f66"/>
                <path id="Path_253" data-name="Path 253" d="M600.96,376.562l2.461-1.643c-.01.077-.023.153-.038.228l-2.461,1.643q.023-.113.038-.228" transform="translate(-597.867 -371.46)" fill="#4d5f66"/>
                <path id="Path_254" data-name="Path 254" d="M600.821,377.182l2.461-1.643c-.017.078-.036.155-.059.231l-2.461,1.642q.034-.114.059-.231" transform="translate(-597.766 -371.852)" fill="#4d5f66"/>
                <path id="Path_255" data-name="Path 255" d="M600.619,377.809l2.461-1.642c-.024.081-.052.162-.083.24l-2.461,1.643c.031-.079.059-.159.083-.24" transform="translate(-597.623 -372.248)" fill="#4d5f66"/>
                <path id="Path_256" data-name="Path 256" d="M600.328,378.462l2.461-1.643a2.756,2.756,0,0,1-.122.266l-2.461,1.642a2.749,2.749,0,0,0,.122-.265" transform="translate(-597.414 -372.66)" fill="#4d5f66"/>
                <path id="Path_257" data-name="Path 257" d="M599.885,379.182l2.461-1.642a2.907,2.907,0,0,1-.187.31l-2.461,1.642a2.835,2.835,0,0,0,.187-.31" transform="translate(-597.093 -373.116)" fill="#4d5f66"/>
                <path id="Path_258" data-name="Path 258" d="M598.372,380.024l2.461-1.642a2.9,2.9,0,0,1-.773.758l-2.461,1.643a2.9,2.9,0,0,0,.773-.759" transform="translate(-595.767 -373.648)" fill="#4d5f66"/>
              </g>
            </g>
          </g>
        </g>
      </g>
    </g>
  </g>
</svg>
